<svg width="39" height="39" viewBox="0 0 39 39" fill="none" xmlns="http://www.w3.org/2000/svg">
<circle cx="19.5" cy="19.5" r="19.5" fill="#307FE2" fill-opacity="0.38"/>
<path d="M19.5 32.4166C17.7347 32.4166 16.0663 32.0774 14.4948 31.3988C12.9233 30.7203 11.5511 29.7946 10.3783 28.6217C9.20543 27.4489 8.27973 26.0767 7.60118 24.5052C6.92262 22.9337 6.58334 21.2653 6.58334 19.5C6.58334 17.7132 6.92262 16.0396 7.60118 14.4793C8.27973 12.9189 9.20543 11.5519 10.3783 10.3782C11.5511 9.20454 12.9233 8.27884 14.4948 7.60115C16.0663 6.92345 17.7347 6.58417 19.5 6.58331C21.2868 6.58331 22.9608 6.92259 24.522 7.60115C26.0832 8.2797 27.4498 9.2054 28.6218 10.3782C29.7937 11.5511 30.7194 12.9181 31.3988 14.4793C32.0783 16.0405 32.4175 17.714 32.4167 19.5C32.4167 21.2653 32.0774 22.9337 31.3988 24.5052C30.7203 26.0767 29.7946 27.4493 28.6218 28.623C27.4489 29.7967 26.0819 30.7224 24.5207 31.4001C22.9595 32.0778 21.286 32.4166 19.5 32.4166ZM19.5 29.7687C20.0597 28.9937 20.5441 28.1864 20.9531 27.3469C21.3622 26.5073 21.6958 25.6139 21.9542 24.6666H17.0458C17.3042 25.6139 17.6379 26.5073 18.0469 27.3469C18.4559 28.1864 18.9403 28.9937 19.5 29.7687ZM16.1417 29.2521C15.7542 28.5416 15.4153 27.8041 15.1251 27.0394C14.8349 26.2748 14.5925 25.4838 14.3979 24.6666H10.5875C11.2118 25.743 11.9924 26.6795 12.9293 27.476C13.8662 28.2725 14.937 28.8646 16.1417 29.2521ZM22.8583 29.2521C24.0639 28.8646 25.1351 28.2725 26.072 27.476C27.0089 26.6795 27.7891 25.743 28.4125 24.6666H24.6021C24.4083 25.4847 24.1664 26.2761 23.8762 27.0407C23.586 27.8054 23.2467 28.5425 22.8583 29.2521ZM9.48959 22.0833H13.8813C13.8167 21.6528 13.7685 21.2278 13.7366 20.8084C13.7047 20.3891 13.6884 19.9529 13.6875 19.5C13.6866 19.047 13.703 18.6113 13.7366 18.1928C13.7702 17.7743 13.8184 17.3489 13.8813 16.9166H9.48959C9.38195 17.3472 9.30144 17.7726 9.24805 18.1928C9.19466 18.613 9.16754 19.0488 9.16668 19.5C9.16582 19.9512 9.19294 20.3874 9.24805 20.8084C9.30316 21.2295 9.38368 21.6545 9.48959 22.0833ZM16.4646 22.0833H22.5354C22.6 21.6528 22.6487 21.2278 22.6814 20.8084C22.7141 20.3891 22.73 19.9529 22.7292 19.5C22.7283 19.047 22.712 18.6113 22.6801 18.1928C22.6482 17.7743 22.6 17.3489 22.5354 16.9166H16.4646C16.4 17.3472 16.3518 17.7726 16.3199 18.1928C16.2881 18.613 16.2717 19.0488 16.2708 19.5C16.27 19.9512 16.2863 20.3874 16.3199 20.8084C16.3535 21.2295 16.4017 21.6545 16.4646 22.0833ZM25.1188 22.0833H29.5104C29.6181 21.6528 29.699 21.2278 29.7533 20.8084C29.8075 20.3891 29.8342 19.9529 29.8333 19.5C29.8325 19.047 29.8058 18.6113 29.7533 18.1928C29.7007 17.7743 29.6198 17.3489 29.5104 16.9166H25.1188C25.1833 17.3472 25.232 17.7726 25.2647 18.1928C25.2974 18.613 25.3134 19.0488 25.3125 19.5C25.3116 19.9512 25.2953 20.3874 25.2634 20.8084C25.2316 21.2295 25.1833 21.6545 25.1188 22.0833ZM24.6021 14.3333H28.4125C27.7882 13.2569 27.008 12.3205 26.072 11.5239C25.136 10.7274 24.0648 10.1354 22.8583 9.7479C23.2458 10.4583 23.5851 11.1959 23.8762 11.9605C24.1672 12.7252 24.4092 13.5161 24.6021 14.3333ZM17.0458 14.3333H21.9542C21.6958 13.3861 21.3622 12.4927 20.9531 11.6531C20.5441 10.8135 20.0597 10.0062 19.5 9.23123C18.9403 10.0062 18.4559 10.8135 18.0469 11.6531C17.6379 12.4927 17.3042 13.3861 17.0458 14.3333ZM10.5875 14.3333H14.3979C14.5917 13.5153 14.8341 12.7239 15.1251 11.9592C15.4162 11.1946 15.755 10.4575 16.1417 9.7479C14.9361 10.1354 13.8649 10.7274 12.928 11.5239C11.9911 12.3205 11.211 13.2569 10.5875 14.3333Z" fill="black"/>
</svg>
